<?xml version="1.0" standalone="no"?>
<!DOCTYPE svg PUBLIC "-//W3C//DTD SVG 20010904//EN"
 "http://www.w3.org/TR/2001/REC-SVG-20010904/DTD/svg10.dtd">
<svg version="1.0" xmlns="http://www.w3.org/2000/svg"
 width="2000.000000pt" height="2000.000000pt" viewBox="0 0 2000.000000 2000.000000"
 preserveAspectRatio="xMidYMid meet">

<g transform="translate(0.000000,2000.000000) scale(0.100000,-0.100000)"
fill="#000000" stroke="none">
<path d="M9020 12313 c-426 -22 -840 -93 -1222 -210 l-118 -36 0 -813 0 -813
83 39 c213 98 530 191 790 231 636 98 1213 -32 1518 -341 58 -58 87 -97 115
-156 35 -73 39 -87 42 -181 l4 -103 -61 0 c-45 0 -61 4 -61 14 0 36 -85 179
-146 244 -272 295 -863 422 -1428 307 -175 -35 -272 -67 -421 -140 -299 -145
-515 -372 -625 -655 -51 -133 -71 -247 -77 -430 -19 -624 234 -1046 732 -1224
228 -82 573 -120 815 -92 310 37 585 170 800 386 219 218 340 486 362 800 l3
35 59 3 c32 2 62 -1 66 -5 6 -6 -121 -955 -144 -1075 l-5 -28 1119 0 1120 0 0
865 0 865 -266 0 -267 0 6 38 c3 20 31 158 61 306 64 307 79 449 65 613 -43
543 -347 950 -914 1228 -378 185 -774 282 -1329 325 -115 9 -530 11 -676 3z
m928 -2544 c205 -25 332 -100 332 -197 0 -114 -166 -191 -450 -210 -300 -19
-560 27 -653 116 -56 53 -54 135 4 192 102 97 429 139 767 99z m1034 -191 c-6
-46 -13 -92 -18 -103 -7 -19 -7 -19 17 1 49 42 86 38 113 -13 13 -26 14 -26
20 -5 4 11 21 33 37 47 38 31 103 35 118 6 7 -13 18 -17 36 -14 20 4 25 1 25
-15 0 -12 -4 -23 -9 -26 -4 -3 -19 -33 -31 -66 -17 -46 -20 -64 -11 -73 14
-14 110 77 138 132 18 36 40 60 56 61 5 0 5 -4 2 -10 -4 -6 8 -10 27 -10 32 0
36 4 78 82 24 45 46 76 48 69 2 -7 -11 -44 -31 -82 -29 -58 -32 -69 -18 -72
11 -3 9 -5 -6 -6 -15 -1 -36 -22 -68 -68 -26 -37 -48 -73 -49 -80 -2 -13 -45
-49 -49 -42 -2 2 -8 11 -15 20 -9 12 -10 24 -2 44 10 26 8 25 -35 -14 -35 -32
-53 -41 -73 -39 -37 4 -39 32 -7 108 14 34 24 65 21 68 -7 6 -5 10 -35 -51
-49 -98 -163 -166 -178 -106 -5 19 -7 19 -37 -8 -26 -24 -28 -24 -10 -3 47 55
59 127 27 162 -52 58 -136 -43 -147 -177 l-3 -37 36 6 c26 4 31 2 19 -4 -9 -6
-28 -11 -42 -12 -14 -1 -26 -6 -26 -11 0 -5 -6 -7 -12 -4 -51 18 -54 17 -71
-17 -27 -58 -98 -81 -112 -37 -20 63 67 269 104 247 15 -9 61 12 61 28 0 14
18 32 25 24 2 -2 -5 -35 -16 -73 -10 -38 -19 -90 -18 -115 l0 -45 20 59 c11
32 26 68 33 80 21 33 44 115 51 181 8 78 17 123 22 108 2 -6 0 -49 -5 -95z
m-421 -95 c10 -27 9 -109 -7 -309 -5 -65 -3 -87 11 -113 21 -41 30 -33 47 43
7 33 18 61 25 63 8 3 8 -13 -3 -58 -17 -74 -30 -92 -61 -86 -20 4 -24 -1 -29
-35 -7 -38 -26 -68 -44 -68 -21 0 -50 48 -79 128 -45 128 -53 169 -55 254 -1
62 2 81 17 95 18 17 19 17 33 -2 24 -33 32 -84 36 -236 3 -121 7 -151 24 -179
10 -18 24 -33 29 -34 6 -1 14 24 18 55 7 44 4 80 -12 159 -23 113 -28 278 -10
313 24 44 45 47 60 10z m1230 -85 c22 -6 39 -15 39 -20 0 -5 -9 -7 -19 -3 -35
11 -100 10 -112 -2 -8 -8 -1 -18 30 -37 22 -15 41 -32 41 -40 0 -10 11 -11 53
-4 70 11 128 1 134 -23 3 -10 9 -19 14 -19 5 0 9 -6 9 -13 0 -9 10 -12 30 -9
38 5 40 -16 3 -23 -84 -17 -154 -39 -170 -52 -17 -14 -17 -14 2 -7 11 4 61 9
110 11 72 3 97 0 125 -14 19 -10 36 -22 36 -28 6 -40 18 -55 45 -55 16 0 29
-4 29 -10 0 -5 -7 -10 -17 -10 -10 0 2 -14 30 -36 42 -33 58 -54 41 -54 -3 0
-26 16 -51 35 -66 50 -81 40 -52 -33 26 -64 -33 -92 -110 -52 -49 25 -74 60
-75 106 -1 27 -5 34 -21 34 -45 0 -135 85 -119 112 3 4 -9 8 -26 8 -39 0 -99
25 -106 44 -3 7 -25 17 -49 20 -24 4 -49 14 -56 22 -18 22 -4 28 23 10 12 -9
33 -16 46 -16 26 0 102 36 102 49 0 5 -18 20 -40 35 -43 28 -49 46 -24 70 18
19 52 20 105 4z"/>
<path d="M11177 9488 c-23 -14 -45 -38 -58 -64 -49 -103 -14 -136 66 -63 34
32 45 48 41 63 -3 13 3 29 15 42 41 44 -1 58 -64 22z"/>
<path d="M11434 9415 c-46 -106 -27 -108 45 -5 l42 60 -31 0 c-28 0 -33 -5
-56 -55z"/>
<path d="M10780 9390 c-6 -11 -8 -20 -6 -20 3 0 10 9 16 20 6 11 8 20 6 20 -3
0 -10 -9 -16 -20z"/>
<path d="M10788 9360 c-52 -72 -74 -133 -59 -166 31 -69 105 38 113 165 2 24
-1 45 -7 47 -5 2 -27 -19 -47 -46z"/>
<path d="M10516 9458 c-8 -30 -7 -139 1 -207 5 -44 8 -50 14 -32 12 31 23 204
15 235 -8 32 -22 34 -30 4z"/>
<path d="M10384 9355 c-7 -30 9 -147 31 -215 l14 -45 0 100 c1 98 -11 169 -29
180 -5 3 -12 -6 -16 -20z"/>
<path d="M11908 9273 c7 -3 16 -2 19 1 4 3 -2 6 -13 5 -11 0 -14 -3 -6 -6z"/>
<path d="M11733 9239 c-37 -23 -40 -31 -18 -49 22 -19 140 -8 199 19 68 30 50
44 -61 48 -75 2 -93 0 -120 -18z"/>
<path d="M11888 9118 c4 -17 2 -20 -12 -15 -13 5 -17 2 -14 -10 5 -27 82 -45
159 -37 73 7 100 18 84 32 -22 20 -128 52 -174 52 -45 0 -49 -2 -43 -22z"/>
<path d="M12060 9126 c0 -2 9 -6 20 -9 11 -3 18 -1 14 4 -5 9 -34 13 -34 5z"/>
<path d="M12002 9030 c-47 -11 -50 -19 -14 -32 36 -14 42 -28 12 -28 -31 0
-13 -27 34 -50 78 -37 112 -20 81 40 -9 18 -15 43 -12 56 4 22 1 24 -32 23
-20 -1 -51 -5 -69 -9z"/>
<path d="M7657 7703 c-3 -4 -15 -41 -27 -82 -12 -40 -24 -80 -27 -87 -3 -10 3
-14 20 -14 16 0 26 7 30 20 3 14 14 20 32 20 18 0 29 -6 32 -20 3 -13 14 -20
29 -20 29 0 29 -5 -5 100 -24 76 -29 85 -53 88 -14 2 -28 0 -31 -5z m42 -90
c1 -14 -5 -23 -14 -23 -16 0 -19 20 -8 59 6 23 7 23 14 5 4 -10 8 -29 8 -41z"/>
<path d="M7790 7615 l0 -95 65 0 c51 0 65 3 65 15 0 11 -11 15 -40 15 l-40 0
0 80 c0 79 0 80 -25 80 -25 0 -25 0 -25 -95z"/>
<path d="M7960 7615 l0 -96 62 3 c38 2 63 8 66 16 2 8 -9 12 -37 12 l-41 0 0
80 c0 79 0 80 -25 80 -25 0 -25 0 -25 -95z"/>
<path d="M8294 7623 c-14 -49 -28 -91 -31 -95 -2 -5 7 -8 21 -8 16 0 27 7 31
20 4 14 15 20 36 20 22 0 29 -5 29 -20 0 -15 7 -20 25 -20 14 0 25 2 25 6 0 3
-12 45 -27 95 -25 84 -28 89 -54 89 -27 0 -30 -5 -55 -87z m66 8 c7 -25 6 -33
-6 -38 -22 -8 -26 1 -18 41 7 42 11 42 24 -3z"/>
<path d="M8450 7614 l0 -96 56 4 c80 7 107 46 62 88 -12 11 -17 20 -11 20 21
0 26 40 7 61 -12 14 -30 19 -66 19 l-48 0 0 -96z m78 44 c-5 -34 -38 -37 -38
-4 0 20 5 26 21 26 15 0 20 -5 17 -22z m4 -58 c21 0 3 -45 -19 -48 -20 -3 -23
1 -23 28 0 25 3 31 16 26 9 -3 20 -6 26 -6z"/>
<path d="M8624 7684 c-10 -14 -17 -45 -17 -69 0 -64 24 -95 73 -95 49 0 73 31
73 95 0 64 -24 95 -73 95 -31 0 -43 -5 -56 -26z m80 -20 c3 -9 6 -31 6 -49 0
-46 -9 -65 -30 -65 -21 0 -30 19 -30 65 0 46 9 65 30 65 10 0 21 -7 24 -16z"/>
<path d="M8772 7629 c4 -65 9 -85 23 -95 20 -15 73 -18 92 -6 20 13 33 61 33
123 0 56 -1 59 -25 59 -23 0 -24 -3 -27 -77 -3 -70 -5 -78 -23 -78 -18 0 -20
8 -23 78 -3 75 -3 77 -29 77 l-26 0 5 -81z"/>
<path d="M8930 7695 c0 -10 10 -15 30 -15 l30 0 0 -80 c0 -73 2 -80 20 -80 18
0 20 7 20 79 0 79 0 80 27 83 14 2 28 9 31 16 3 9 -17 12 -77 12 -65 0 -81 -3
-81 -15z"/>
<path d="M9284 7685 c-15 -23 -15 -27 -1 -49 9 -13 32 -30 52 -36 52 -17 44
-45 -12 -45 -23 0 -45 -4 -49 -8 -14 -13 18 -27 64 -27 43 0 82 25 82 53 0 24
-31 57 -63 65 -19 5 -33 16 -35 27 -4 16 1 17 37 12 42 -5 65 8 40 24 -8 5
-33 9 -56 9 -34 0 -46 -5 -59 -25z"/>
<path d="M9454 7623 c-14 -49 -28 -91 -31 -95 -2 -5 7 -8 21 -8 16 0 27 7 31
20 4 14 15 20 36 20 22 0 29 -5 29 -20 0 -17 7 -20 50 -20 43 0 50 3 50 20 0
15 7 20 29 20 21 0 32 -6 36 -20 4 -12 15 -20 30 -20 l23 0 -28 93 c-26 87
-29 92 -57 95 -29 3 -30 2 -53 -82 -13 -46 -27 -83 -31 -81 -3 3 -16 40 -29
85 -22 76 -24 80 -51 80 -27 0 -30 -4 -55 -87z m66 8 c7 -25 6 -33 -6 -38 -22
-8 -26 1 -18 41 7 42 11 42 24 -3z m169 -23 c1 -18 -24 -25 -32 -10 -2 4 0 23
6 42 10 34 10 34 17 10 5 -14 8 -33 9 -42z"/>
<path d="M9787 7692 c-31 -34 -17 -63 47 -93 16 -8 31 -20 34 -26 6 -19 -27
-28 -59 -16 -22 8 -31 8 -39 -2 -26 -32 93 -50 124 -19 19 19 21 68 4 81 -7 6
-26 15 -43 20 -16 5 -32 18 -34 28 -3 16 2 17 37 12 28 -3 42 -1 46 8 11 30
-91 36 -117 7z"/>
<path d="M11171 7643 c11 -38 22 -80 26 -95 4 -23 11 -28 34 -28 26 0 30 5 48
68 36 120 36 122 12 122 -21 0 -24 -7 -48 -115 l-9 -40 -18 78 c-16 69 -20 77
-41 77 l-24 0 20 -67z"/>
<path d="M11340 7696 c0 -7 9 -16 20 -19 17 -4 20 -14 20 -62 0 -48 -3 -58
-20 -62 -11 -3 -20 -12 -20 -19 0 -10 16 -14 60 -14 47 0 60 3 60 15 0 8 -9
15 -20 15 -18 0 -20 7 -20 65 0 58 2 65 20 65 11 0 20 7 20 15 0 12 -13 15
-60 15 -44 0 -60 -4 -60 -14z"/>
<path d="M11510 7615 l0 -95 60 0 c47 0 60 3 60 15 0 11 -11 15 -40 15 -36 0
-40 3 -40 25 0 22 4 25 35 25 24 0 35 5 35 15 0 10 -11 15 -35 15 -31 0 -35 3
-35 25 0 23 4 25 40 25 29 0 40 4 40 15 0 12 -13 15 -60 15 l-60 0 0 -95z"/>
<path d="M11650 7695 c0 -10 10 -15 30 -15 l30 0 0 -80 c0 -73 2 -80 20 -80
18 0 20 7 20 79 0 79 0 80 27 83 14 2 28 9 31 16 3 9 -17 12 -77 12 -65 0 -81
-3 -81 -15z"/>
<path d="M11830 7615 c0 -76 3 -95 15 -95 11 0 15 16 17 68 l3 67 20 -65 c18
-57 24 -65 48 -68 l27 -3 0 95 c0 79 -3 96 -15 96 -12 0 -15 -15 -16 -67 l-1
-68 -22 67 c-19 62 -23 68 -48 68 l-28 0 0 -95z"/>
<path d="M12006 7623 c-31 -105 -31 -103 -5 -103 12 0 23 8 26 20 4 14 14 20
33 20 19 0 29 -6 33 -20 5 -21 47 -29 47 -9 0 6 -12 49 -26 95 -25 78 -28 84
-54 84 -25 0 -29 -5 -54 -87z m64 25 c0 -7 3 -23 6 -35 5 -19 2 -23 -16 -23
-18 0 -21 4 -16 23 3 12 6 28 6 35 0 6 5 12 10 12 6 0 10 -6 10 -12z"/>
<path d="M12160 7676 c0 -18 -3 -61 -6 -95 -7 -58 -6 -61 15 -61 19 0 21 6 22
63 l1 62 9 -44 c10 -51 13 -55 34 -48 8 4 15 18 15 34 0 22 2 25 10 13 5 -8
10 -30 10 -47 0 -25 4 -33 18 -33 15 0 17 9 12 92 -5 87 -7 93 -27 96 -17 3
-24 -3 -28 -25 -19 -89 -21 -91 -29 -30 -7 52 -10 57 -32 57 -21 0 -24 -5 -24
-34z"/>
<path d="M10850 7285 l0 -95 55 0 c30 0 55 5 55 10 0 6 -18 10 -40 10 -39 0
-40 1 -40 35 0 33 2 35 36 35 21 0 33 4 29 10 -3 6 -19 10 -36 10 -26 0 -29 3
-29 30 0 28 2 30 40 30 22 0 40 5 40 10 0 6 -25 10 -55 10 l-55 0 0 -95z"/>
<path d="M11020 7366 c-23 -29 -8 -60 43 -84 26 -12 47 -28 47 -36 0 -26 -28
-39 -70 -32 -22 3 -40 2 -40 -3 0 -23 85 -29 114 -8 12 9 17 23 14 42 -2 24
-12 34 -48 52 -61 29 -63 58 -2 57 42 -1 55 9 26 20 -28 11 -71 6 -84 -8z"/>
<path d="M11160 7370 c0 -5 14 -10 30 -10 l30 0 0 -85 c0 -50 4 -85 10 -85 6
0 10 35 10 85 l0 85 30 0 c17 0 30 5 30 10 0 6 -30 10 -70 10 -40 0 -70 -4
-70 -10z"/>
<path d="M11683 7373 c-26 -10 -12 -20 25 -19 34 1 37 -1 40 -29 2 -24 -6 -38
-37 -70 -55 -55 -53 -65 14 -65 30 0 55 5 55 10 0 6 -19 10 -42 10 l-42 0 31
33 c54 57 65 93 37 121 -15 15 -55 20 -81 9z"/>
<path d="M11855 7360 c-13 -14 -18 -36 -18 -75 0 -85 53 -125 99 -74 25 28 24
121 -1 149 -23 26 -57 26 -80 0z m65 -7 c-1 -5 -14 -33 -30 -63 l-29 -55 -1
51 c0 27 5 55 12 62 13 13 48 16 48 5z m6 -120 c-5 -16 -14 -23 -31 -23 -14 0
-25 2 -25 5 0 2 12 30 28 61 l27 56 3 -37 c2 -21 1 -49 -2 -62z"/>
<path d="M12013 7373 c-26 -10 -12 -20 25 -19 34 1 37 -1 40 -29 2 -24 -6 -38
-37 -70 -55 -55 -53 -65 14 -65 30 0 55 5 55 10 0 6 -19 10 -42 10 l-42 0 31
33 c54 57 65 93 37 121 -15 15 -55 20 -81 9z"/>
<path d="M12191 7354 c-26 -33 -28 -109 -5 -142 38 -55 121 0 98 65 -11 32
-54 43 -81 21 -15 -12 -16 -10 -9 17 9 36 30 55 56 48 11 -3 20 0 20 6 0 23
-58 12 -79 -15z m74 -85 c8 -24 -11 -59 -33 -59 -42 0 -56 49 -21 74 25 17 46
12 54 -15z"/>
<path d="M11374 7219 c-9 -15 12 -33 30 -26 9 4 16 13 16 22 0 17 -35 21 -46
4z"/>
</g>
</svg>
