<?xml version="1.0" standalone="no"?>
<!DOCTYPE svg PUBLIC "-//W3C//DTD SVG 20010904//EN"
 "http://www.w3.org/TR/2001/REC-SVG-20010904/DTD/svg10.dtd">
<svg version="1.0" xmlns="http://www.w3.org/2000/svg"
 width="2000.000000pt" height="2000.000000pt" viewBox="0 0 2000.000000 2000.000000"
 preserveAspectRatio="xMidYMid meet">

<g transform="translate(0.000000,2000.000000) scale(0.100000,-0.100000)"
fill="#fff" stroke="none">
<path d="M9020 12313 c-426 -22 -840 -93 -1222 -210 l-118 -36 0 -813 0 -813
83 39 c213 98 530 191 790 231 636 98 1213 -32 1518 -341 58 -58 87 -97 115
-156 35 -73 39 -87 42 -181 l4 -103 -61 0 c-45 0 -61 4 -61 14 0 7 -18 50 -40
94 -169 336 -666 532 -1254 492 -708 -47 -1205 -388 -1361 -934 -32 -111 -45
-225 -45 -388 0 -584 257 -991 735 -1162 228 -82 573 -120 815 -92 310 37 585
170 800 386 219 218 340 486 362 800 l3 35 59 3 c32 2 62 -1 66 -5 6 -6 -121
-955 -144 -1075 l-5 -28 1119 0 1120 0 0 865 0 865 -266 0 -267 0 6 38 c3 20
31 158 61 306 64 307 79 449 65 613 -43 543 -347 950 -914 1228 -378 185 -774
282 -1329 325 -115 9 -530 11 -676 3z m928 -2544 c205 -24 332 -100 332 -196
0 -99 -124 -173 -340 -203 -103 -14 -371 -14 -469 0 -190 27 -309 88 -331 170
-12 46 3 93 41 130 102 97 429 139 767 99z m1034 -191 c-6 -46 -13 -92 -18
-103 -7 -19 -7 -19 17 1 49 42 86 38 113 -13 13 -26 14 -26 20 -5 4 11 21 33
37 47 38 31 103 35 118 6 7 -13 18 -17 36 -14 20 4 25 1 25 -15 0 -12 -4 -23
-9 -26 -4 -3 -19 -33 -31 -66 -17 -46 -20 -64 -11 -73 14 -14 110 77 138 132
18 36 40 60 56 61 5 0 5 -4 2 -10 -4 -6 8 -10 27 -10 32 0 36 4 78 82 24 45
46 76 48 69 2 -7 -11 -44 -31 -82 -29 -58 -32 -69 -18 -72 11 -3 9 -5 -6 -6
-15 -1 -36 -22 -68 -68 -26 -37 -48 -73 -49 -80 -2 -13 -45 -49 -49 -42 -2 2
-8 11 -15 20 -9 12 -10 24 -2 44 10 26 8 25 -35 -14 -35 -32 -53 -41 -73 -39
-37 4 -39 32 -7 108 14 34 24 65 21 68 -7 6 -5 10 -35 -51 -49 -98 -163 -166
-178 -106 -5 19 -7 19 -37 -8 -26 -24 -28 -24 -10 -3 47 55 59 127 27 162 -52
58 -136 -43 -147 -177 l-3 -37 36 6 c26 4 31 2 19 -4 -9 -6 -28 -11 -42 -12
-14 -1 -26 -6 -26 -11 0 -5 -6 -7 -12 -4 -51 18 -54 17 -71 -17 -27 -58 -98
-81 -112 -37 -20 63 67 269 104 247 15 -9 61 12 61 28 0 14 18 32 25 24 2 -2
-5 -35 -16 -73 -10 -38 -19 -90 -18 -115 l0 -45 20 59 c11 32 26 68 33 80 21
33 44 115 51 181 8 78 17 123 22 108 2 -6 0 -49 -5 -95z m-421 -95 c10 -27 9
-109 -7 -309 -5 -65 -3 -87 11 -113 21 -41 30 -33 47 43 7 33 18 61 25 63 8 3
8 -13 -3 -58 -17 -74 -30 -92 -61 -86 -20 4 -24 -1 -29 -35 -7 -38 -26 -68
-44 -68 -21 0 -50 48 -79 128 -45 128 -53 169 -55 254 -1 62 2 81 17 95 18 17
19 17 33 -2 24 -33 32 -84 36 -236 3 -121 7 -151 24 -179 10 -18 24 -33 29
-34 6 -1 14 24 18 55 7 44 4 80 -12 159 -23 113 -28 278 -10 313 24 44 45 47
60 10z m1230 -85 c22 -6 39 -15 39 -20 0 -5 -9 -7 -19 -3 -35 11 -100 10 -112
-2 -8 -8 -1 -18 30 -37 22 -15 41 -32 41 -40 0 -10 11 -11 53 -4 70 11 128 1
134 -23 3 -10 9 -19 14 -19 5 0 9 -6 9 -13 0 -9 10 -12 30 -9 38 5 40 -16 3
-23 -84 -17 -154 -39 -170 -52 -17 -14 -17 -14 2 -7 11 4 61 9 110 11 72 3 97
0 125 -14 19 -10 36 -22 36 -28 6 -40 18 -55 45 -55 16 0 29 -4 29 -10 0 -5
-7 -10 -17 -10 -10 0 2 -14 30 -36 42 -33 58 -54 41 -54 -3 0 -26 16 -51 35
-66 50 -81 40 -52 -33 26 -64 -33 -92 -110 -52 -49 25 -74 60 -75 106 -1 27
-5 34 -21 34 -45 0 -135 85 -119 112 3 4 -9 8 -26 8 -39 0 -99 25 -106 44 -3
7 -25 17 -49 20 -24 4 -49 14 -56 22 -18 22 -4 28 23 10 12 -9 33 -16 46 -16
26 0 102 36 102 49 0 5 -18 20 -40 35 -43 28 -49 46 -24 70 18 19 52 20 105 4z"/>
<path d="M11177 9488 c-23 -14 -45 -38 -58 -64 -49 -103 -14 -136 66 -63 34
32 45 48 41 63 -3 13 3 29 15 42 41 44 -1 58 -64 22z"/>
<path d="M11434 9415 c-46 -106 -27 -108 45 -5 l42 60 -31 0 c-28 0 -33 -5
-56 -55z"/>
<path d="M10780 9390 c-6 -11 -8 -20 -6 -20 3 0 10 9 16 20 6 11 8 20 6 20 -3
0 -10 -9 -16 -20z"/>
<path d="M10788 9360 c-52 -72 -74 -133 -59 -166 31 -69 105 38 113 165 2 24
-1 45 -7 47 -5 2 -27 -19 -47 -46z"/>
<path d="M10516 9458 c-8 -30 -7 -139 1 -207 5 -44 8 -50 14 -32 12 31 23 204
15 235 -8 32 -22 34 -30 4z"/>
<path d="M10384 9355 c-7 -30 9 -147 31 -215 l14 -45 0 100 c1 98 -11 169 -29
180 -5 3 -12 -6 -16 -20z"/>
<path d="M11908 9273 c7 -3 16 -2 19 1 4 3 -2 6 -13 5 -11 0 -14 -3 -6 -6z"/>
<path d="M11733 9239 c-37 -23 -40 -31 -18 -49 22 -19 140 -8 199 19 68 30 50
44 -61 48 -75 2 -93 0 -120 -18z"/>
<path d="M11888 9118 c4 -17 2 -20 -12 -15 -13 5 -17 2 -14 -10 5 -27 82 -45
159 -37 73 7 100 18 84 32 -22 20 -128 52 -174 52 -45 0 -49 -2 -43 -22z"/>
<path d="M12060 9126 c0 -2 9 -6 20 -9 11 -3 18 -1 14 4 -5 9 -34 13 -34 5z"/>
<path d="M12002 9030 c-47 -11 -50 -19 -14 -32 36 -14 42 -28 12 -28 -31 0
-13 -27 34 -50 78 -37 112 -20 81 40 -9 18 -15 43 -12 56 4 22 1 24 -32 23
-20 -1 -51 -5 -69 -9z"/>
</g>
</svg>
