<?xml version="1.0" standalone="no"?>
<!DOCTYPE svg PUBLIC "-//W3C//DTD SVG 20010904//EN"
 "http://www.w3.org/TR/2001/REC-SVG-20010904/DTD/svg10.dtd">
<svg version="1.0" xmlns="http://www.w3.org/2000/svg"
 width="2000.000000pt" height="2000.000000pt" viewBox="0 0 2000.000000 2000.000000"
 preserveAspectRatio="xMidYMid meet">

<g transform="translate(0.000000,2000.000000) scale(0.100000,-0.100000)"
fill="#000000" stroke="none">
<path d="M8040 16760 c-290 -10 -619 -32 -925 -60 -944 -89 -1954 -297 -2805
-577 l-115 -38 -3 -2162 c-1 -1190 2 -2163 6 -2163 5 0 89 37 188 81 853 386
1823 632 2774 704 235 17 637 20 862 5 1034 -68 1966 -414 2502 -930 169 -163
267 -291 353 -465 94 -187 123 -327 123 -591 l0 -184 -153 0 -153 0 -33 103
c-194 591 -808 1090 -1651 1342 -197 58 -543 128 -775 155 -226 27 -795 39
-1040 21 -461 -33 -882 -109 -1255 -227 -466 -147 -913 -380 -1255 -652 -282
-226 -494 -454 -684 -740 -271 -406 -432 -851 -507 -1397 -26 -184 -26 -761
-1 -985 44 -393 120 -719 234 -1010 271 -691 758 -1201 1443 -1511 422 -191
868 -298 1495 -361 204 -20 827 -17 985 5 581 81 1096 275 1570 590 771 514
1291 1304 1445 2194 19 115 45 350 45 421 l0 52 181 0 181 0 -6 -27 c-3 -16
-96 -665 -206 -1443 -110 -778 -203 -1430 -206 -1447 l-6 -33 2986 0 2986 0 0
2310 0 2310 -715 0 c-393 0 -715 2 -715 4 0 3 65 316 145 697 79 380 156 760
170 843 125 754 60 1468 -190 2091 -304 757 -842 1374 -1644 1885 -760 485
-1762 841 -2897 1029 -444 74 -861 120 -1384 151 -233 14 -1046 20 -1350 10z
m1851 -6760 c574 -33 943 -134 1118 -308 93 -93 116 -142 116 -257 0 -81 -3
-95 -29 -143 -106 -191 -423 -331 -901 -396 -180 -24 -522 -39 -740 -32 -664
21 -1088 134 -1284 341 -73 77 -95 130 -96 230 0 104 32 174 119 260 233 230
900 350 1697 305z m3144 -277 c-11 -30 -24 -122 -35 -263 -8 -115 -23 -190
-57 -305 -4 -14 10 -5 45 27 92 86 183 103 248 46 42 -37 73 -98 74 -143 0
-27 4 -23 42 40 83 138 157 190 276 193 88 2 127 -15 148 -64 8 -19 16 -34 18
-34 2 0 22 7 45 15 45 16 101 10 101 -10 0 -7 -26 -66 -59 -131 -65 -134 -111
-258 -111 -302 0 -39 27 -63 59 -51 36 14 207 192 291 304 96 126 94 123 80
140 -16 19 -4 35 24 35 15 0 27 9 34 25 8 17 20 25 37 25 28 0 29 -3 14 -31
-10 -19 -7 -20 76 -17 l87 3 46 75 c25 41 78 137 117 213 61 118 74 136 85
123 10 -13 10 -22 -1 -48 -22 -56 -115 -241 -153 -303 l-36 -60 42 -5 c58 -7
50 -24 -11 -28 l-50 -3 -92 -132 c-51 -73 -114 -160 -140 -194 -27 -35 -49
-65 -49 -68 0 -3 9 -5 20 -5 35 0 22 -20 -27 -42 -27 -11 -55 -29 -64 -41 -17
-21 -39 -16 -39 8 0 8 -11 25 -25 39 -30 30 -30 37 -5 118 11 34 20 66 20 69
0 3 -51 -45 -113 -107 -90 -89 -121 -114 -150 -119 -43 -8 -103 10 -117 35
-27 50 2 162 87 338 30 62 53 116 50 118 -2 3 -20 -2 -39 -11 -28 -14 -36 -25
-46 -68 -25 -106 -200 -330 -308 -393 -95 -56 -186 -33 -215 54 l-11 34 -57
-55 c-31 -30 -78 -69 -106 -87 -59 -39 -52 -30 33 40 116 95 170 214 151 331
-13 80 -31 113 -77 143 -81 53 -142 42 -204 -36 -79 -99 -105 -162 -158 -369
-19 -74 -20 -83 -6 -91 22 -12 20 -26 -9 -64 -14 -18 -25 -42 -25 -54 0 -11
-12 -33 -27 -47 l-26 -27 -8 22 c-6 16 -17 22 -39 22 -23 0 -35 7 -49 31 l-19
30 -38 -81 c-44 -94 -115 -167 -190 -196 -57 -22 -90 -12 -116 36 -17 30 -19
48 -14 125 3 50 14 124 25 167 24 95 109 277 156 333 31 39 89 75 101 63 8 -9
-7 -38 -20 -38 -7 0 -22 -10 -33 -22 -22 -25 -95 -159 -89 -165 2 -2 22 25 44
59 79 121 172 195 212 170 15 -9 19 -3 35 49 22 71 43 95 69 76 17 -12 16 -17
-9 -92 -48 -145 -75 -276 -82 -397 -4 -78 -3 -118 4 -118 18 0 30 24 38 75 9
67 56 191 103 279 22 39 58 125 80 191 33 98 42 144 51 250 18 197 30 276 53
323 19 40 48 61 33 25z m-1174 -488 c53 -119 61 -264 29 -512 -37 -282 -40
-308 -49 -407 -9 -96 -9 -101 21 -184 17 -47 43 -99 58 -115 l27 -31 16 31
c21 39 53 157 68 248 14 83 22 101 49 108 24 6 24 0 9 -92 -14 -82 -53 -221
-74 -260 -32 -63 -93 -79 -142 -37 l-29 24 -13 -96 c-20 -153 -48 -202 -112
-202 -72 0 -126 80 -210 310 -89 242 -118 358 -150 589 -28 210 -14 307 54
369 39 36 58 25 99 -58 62 -124 70 -187 77 -600 l6 -365 39 -76 c39 -77 58
-104 89 -128 15 -12 19 -10 31 21 16 37 35 195 36 298 1 57 -26 213 -59 336
-29 110 -44 277 -45 479 0 195 1 214 22 267 23 58 88 128 118 128 8 0 24 -20
35 -45z m3297 -261 c75 -16 124 -46 104 -66 -4 -4 -41 -1 -82 8 -41 9 -117 17
-168 18 -88 1 -94 0 -112 -24 -11 -14 -18 -29 -16 -35 1 -5 37 -30 79 -55 94
-56 113 -74 129 -117 11 -30 16 -34 38 -29 73 17 304 29 361 18 57 -10 119
-43 119 -63 0 -14 -28 -11 -55 7 -26 17 -219 29 -209 13 3 -5 27 -9 53 -9 58
0 191 -33 226 -56 14 -9 29 -30 32 -46 5 -24 10 -28 27 -24 12 3 44 8 73 12
45 6 52 4 62 -14 16 -31 12 -33 -119 -57 -186 -34 -421 -116 -445 -155 -14
-23 18 -29 46 -9 38 27 137 48 259 55 121 7 312 -21 384 -56 54 -25 94 -66 80
-80 -7 -7 -22 -1 -46 18 -27 21 -60 33 -123 46 -95 18 -126 16 -48 -3 141 -36
253 -106 253 -160 0 -25 2 -26 67 -28 50 -2 71 -7 80 -19 14 -19 1 -45 -21
-43 -6 1 -29 0 -51 -1 l-40 -2 42 -14 c42 -15 167 -115 215 -173 45 -52 14
-85 -33 -35 -51 55 -171 144 -209 155 -42 13 -90 1 -90 -21 0 -6 21 -48 46
-95 59 -110 63 -164 16 -206 -17 -15 -48 -31 -69 -35 -80 -15 -227 37 -322
114 -47 38 -97 129 -88 162 3 11 -1 24 -9 31 -19 15 -18 73 1 89 8 7 15 15 15
19 0 4 -34 12 -76 19 -41 6 -95 20 -119 31 -56 25 -141 104 -150 139 -4 15
-15 35 -26 45 -21 20 -25 58 -9 88 10 18 7 19 -84 19 -73 0 -109 5 -152 21
-64 24 -129 77 -138 113 -5 22 -11 24 -94 28 -73 3 -96 9 -135 31 -60 36 -83
66 -63 86 13 12 19 10 45 -15 43 -40 83 -52 179 -53 67 -1 89 3 110 18 15 10
50 29 79 41 31 13 55 30 59 42 8 28 -23 67 -76 97 -24 14 -66 46 -93 72 -40
39 -48 51 -42 71 10 33 51 74 88 86 39 14 140 7 245 -14z m-2142 -339 c-49
-37 -216 -81 -216 -57 0 18 43 44 51 30 8 -12 69 0 129 26 45 19 61 20 36 1z"/>
<path d="M13585 9246 c-27 -13 -77 -44 -111 -69 -52 -39 -67 -58 -106 -134
-56 -108 -70 -150 -70 -209 0 -56 22 -84 66 -84 63 0 202 114 290 237 36 50
36 52 14 55 -19 2 -23 9 -21 38 1 28 11 44 47 77 47 42 54 60 36 94 -15 27
-82 25 -145 -5z"/>
<path d="M14266 9158 c-38 -58 -123 -278 -128 -330 -2 -18 1 -35 7 -37 10 -5
132 151 236 302 l60 87 -80 0 c-72 0 -82 -2 -95 -22z"/>
<path d="M13710 9099 c-6 -11 -10 -25 -7 -32 2 -6 9 3 15 21 12 36 8 42 -8 11z"/>
<path d="M12542 8954 c-72 -80 -194 -280 -216 -354 -9 -30 -16 -79 -16 -109 1
-156 112 -166 206 -19 63 98 124 330 124 470 0 98 -18 101 -98 12z"/>
<path d="M11778 9194 c-48 -94 -55 -324 -17 -605 12 -93 25 -167 27 -164 17
17 66 422 65 545 0 106 -18 195 -46 234 -14 19 -15 19 -29 -10z"/>
<path d="M11411 8903 c-31 -109 1 -367 77 -633 l39 -135 5 79 c9 135 -9 504
-27 571 -18 63 -63 155 -76 155 -4 0 -13 -17 -18 -37z"/>
<path d="M15092 8610 c-12 -5 -35 -21 -50 -35 -15 -14 -48 -32 -74 -41 -111
-36 -52 -131 92 -149 88 -10 221 10 356 55 128 43 189 75 189 100 0 18 -76 45
-167 60 -92 15 -319 22 -346 10z"/>
<path d="M15465 8290 c-27 -4 -66 -14 -85 -23 -33 -15 -34 -15 -9 -16 32 -1
54 -24 45 -47 -5 -14 -16 -16 -56 -11 -28 3 -50 4 -50 1 0 -3 7 -18 15 -34 18
-34 84 -71 165 -91 147 -36 520 8 520 61 0 28 -166 99 -327 140 -123 31 -136
32 -218 20z"/>
<path d="M15835 8013 c-62 -8 -191 -36 -207 -44 -31 -17 -20 -29 57 -65 55
-25 75 -40 75 -54 0 -28 -13 -31 -60 -15 -24 8 -45 13 -47 11 -3 -2 2 -17 11
-34 52 -101 263 -191 356 -152 48 20 49 50 2 144 -66 132 -68 176 -9 201 30
13 27 14 -58 13 -49 0 -103 -3 -120 -5z"/>
<path d="M6771 4463 c-77 -39 -117 -141 -109 -280 5 -95 34 -161 86 -201 31
-24 44 -27 112 -27 68 0 81 3 112 27 59 45 82 106 85 223 3 86 0 108 -19 154
-14 34 -37 66 -61 85 -33 26 -48 31 -105 34 -49 2 -76 -2 -101 -15z m146 -99
c11 -17 18 -54 21 -109 8 -158 -14 -215 -83 -215 -55 0 -70 38 -70 175 0 141
15 175 75 175 32 0 43 -5 57 -26z"/>
<path d="M8528 4459 c-36 -16 -52 -31 -68 -63 -49 -102 -1 -173 149 -221 87
-28 114 -72 71 -115 -28 -28 -105 -27 -164 2 l-45 22 -23 -29 c-13 -16 -23
-34 -23 -39 0 -5 22 -21 50 -35 42 -22 63 -26 140 -26 72 0 97 4 124 20 58 34
76 68 76 142 0 63 -1 66 -39 99 -21 18 -68 43 -104 55 -79 26 -118 60 -102 88
20 37 88 44 153 15 l40 -18 23 29 c13 17 24 33 24 37 0 3 -21 17 -47 29 -68
33 -172 37 -235 8z"/>
<path d="M9867 4466 c-73 -27 -102 -72 -94 -150 4 -43 10 -55 42 -83 21 -18
67 -42 104 -54 79 -26 101 -43 101 -80 0 -59 -93 -78 -178 -38 l-43 21 -29
-27 c-24 -23 -27 -31 -18 -42 44 -54 200 -80 283 -49 90 35 133 122 99 205
-19 47 -63 78 -159 111 -70 24 -85 36 -85 66 0 46 85 61 155 28 l37 -17 30 30
31 31 -27 17 c-67 44 -174 57 -249 31z"/>
<path d="M4135 4458 c-3 -7 -32 -103 -65 -213 -34 -110 -67 -219 -75 -242
l-14 -43 64 0 64 0 12 55 12 55 77 0 77 0 12 -55 12 -55 66 0 c47 0 63 3 60
13 -2 6 -38 121 -78 254 l-74 243 -73 0 c-49 0 -74 -4 -77 -12z m104 -190 c11
-48 21 -92 21 -98 0 -5 -22 -10 -50 -10 -27 0 -50 3 -50 8 0 27 45 201 50 195
4 -4 17 -47 29 -95z"/>
<path d="M4500 4215 l0 -255 165 0 c164 0 165 0 165 23 0 12 3 32 6 45 6 22 6
22 -105 22 l-111 0 0 210 0 210 -60 0 -60 0 0 -255z"/>
<path d="M4940 4215 l0 -255 164 0 164 0 6 31 c12 60 14 58 -101 61 l-108 3
-3 208 -2 207 -60 0 -60 0 0 -255z"/>
<path d="M5830 4233 c-40 -131 -75 -246 -78 -255 -4 -16 3 -18 57 -18 40 0 63
4 66 13 2 6 9 31 15 55 l11 42 74 0 74 0 11 -42 c6 -24 13 -49 15 -55 5 -15
125 -18 125 -4 0 7 -93 315 -141 469 l-11 32 -72 0 -72 0 -74 -237z m170 47
c11 -47 23 -93 26 -102 5 -16 -2 -18 -51 -18 -49 0 -56 2 -51 18 3 9 13 49 21
87 19 85 26 108 30 103 2 -2 13 -41 25 -88z"/>
<path d="M6240 4215 l0 -258 134 5 c145 5 178 16 219 70 42 56 19 155 -41 180
-15 7 -29 13 -31 14 -2 2 13 17 33 34 32 28 36 38 36 79 0 96 -45 122 -222
129 l-128 5 0 -258z m218 153 c15 -13 16 -70 0 -86 -7 -7 -31 -12 -55 -12
l-43 0 0 61 0 61 43 -7 c23 -4 48 -12 55 -17z m-24 -188 c45 -10 56 -23 56
-67 0 -41 -30 -63 -87 -63 l-43 0 0 70 c0 78 0 78 74 60z"/>
<path d="M7112 4273 c3 -178 5 -202 24 -238 61 -116 269 -114 331 5 22 41 23
54 23 237 l0 193 -60 0 -60 0 0 -179 c0 -174 -7 -227 -33 -243 -23 -14 -64 -8
-83 13 -17 19 -19 41 -22 215 l-4 194 -59 0 -60 0 3 -197z"/>
<path d="M7540 4425 l0 -45 70 0 70 0 0 -210 0 -210 60 0 60 0 0 210 0 210 69
0 69 0 6 31 c12 62 24 59 -199 59 l-205 0 0 -45z"/>
<path d="M8921 4228 c-40 -134 -76 -249 -78 -255 -3 -10 12 -13 60 -13 l64 0
12 55 12 55 75 0 c51 0 76 -4 79 -12 2 -7 9 -32 15 -55 l11 -43 119 0 119 0
12 55 12 55 77 0 77 0 12 -55 12 -55 66 0 c47 0 63 3 60 13 -2 6 -38 121 -78
255 l-74 243 -74 -3 -75 -3 -70 -232 c-39 -128 -73 -233 -76 -233 -3 0 -37
105 -76 233 l-71 232 -74 3 -74 3 -74 -243z m175 37 c14 -54 23 -99 21 -102
-3 -2 -27 -3 -54 -1 l-48 3 23 103 c13 57 26 101 29 98 3 -2 16 -48 29 -101z
m443 3 c11 -48 21 -92 21 -98 0 -5 -22 -10 -50 -10 -27 0 -50 3 -50 8 0 27 45
201 50 195 4 -4 17 -47 29 -95z"/>
<path d="M13450 4463 c0 -4 32 -118 70 -253 39 -135 70 -246 70 -247 0 -2 34
-3 75 -3 l74 0 17 58 c9 31 43 146 74 255 l58 197 -62 0 -62 0 -44 -192 c-24
-106 -46 -196 -50 -201 -3 -4 -27 82 -51 190 l-46 198 -61 3 c-34 2 -62 -1
-62 -5z"/>
<path d="M13940 4425 l0 -45 55 0 55 0 0 -165 0 -165 -55 0 -55 0 0 -45 0 -45
165 0 165 0 0 45 0 45 -50 0 -50 0 0 165 0 165 50 0 50 0 0 45 0 45 -165 0
-165 0 0 -45z"/>
<path d="M14400 4215 l0 -255 165 0 165 0 0 45 0 45 -105 0 -105 0 0 65 0 65
85 0 85 0 0 40 0 40 -85 0 -85 0 0 65 0 65 100 0 c89 0 100 2 100 18 0 9 3 27
6 40 l6 22 -166 0 -166 0 0 -255z"/>
<path d="M14790 4425 l0 -45 70 0 70 0 0 -210 0 -210 60 0 60 0 0 210 0 210
70 0 c66 0 70 1 70 23 0 12 3 32 6 45 l6 22 -206 0 -206 0 0 -45z"/>
<path d="M15250 4215 l0 -255 51 0 52 0 -5 188 -5 187 62 -185 62 -185 71 -3
72 -3 0 256 0 255 -51 0 -52 0 5 -187 c3 -104 4 -183 2 -178 -2 6 -28 90 -59
188 l-56 177 -75 0 -74 0 0 -255z"/>
<path d="M15770 4368 c-18 -57 -52 -167 -76 -246 -24 -79 -44 -148 -44 -153 0
-5 27 -9 60 -9 l59 0 11 43 c6 23 13 48 15 55 3 8 28 12 79 12 l75 0 12 -55
12 -55 64 0 c57 0 64 2 59 18 -3 9 -37 124 -77 255 l-73 237 -72 0 -73 0 -31
-102z m107 -206 c-27 -2 -51 -1 -53 1 -5 4 31 170 43 197 3 8 18 -32 32 -90
l27 -105 -49 -3z"/>
<path d="M16136 4428 c-5 -41 -26 -399 -26 -446 0 -20 5 -22 50 -22 l50 0 1
188 1 187 28 -135 c16 -74 29 -138 29 -142 1 -7 90 -12 92 -5 0 1 11 58 24
127 23 125 23 125 24 59 1 -36 4 -114 8 -172 l6 -107 49 0 48 0 -1 58 c0 31
-6 145 -12 252 l-12 195 -62 3 c-35 2 -63 -1 -63 -5 0 -4 -11 -73 -25 -153
-14 -80 -25 -149 -26 -155 -1 -8 -14 60 -54 283 -6 32 -6 32 -65 32 l-59 0 -5
-42z"/>
<path d="M12650 3355 l0 -255 150 0 150 0 0 25 0 25 -115 0 -115 0 0 90 0 90
90 0 c89 0 90 0 90 25 0 25 -1 25 -90 25 l-90 0 0 90 0 89 108 3 c102 3 107 4
110 26 3 22 3 22 -142 22 l-146 0 0 -255z"/>
<path d="M13132 3593 c-49 -24 -72 -59 -72 -108 0 -71 43 -109 169 -150 97
-32 128 -92 78 -150 -40 -47 -145 -49 -206 -5 -28 19 -29 19 -46 0 -21 -23
-14 -35 35 -60 82 -42 199 -35 258 15 57 48 61 154 8 204 -13 12 -63 37 -112
55 -58 22 -95 41 -107 58 -58 77 65 141 168 88 36 -18 40 -19 57 -4 22 21 16
32 -36 55 -52 23 -149 25 -194 2z"/>
<path d="M13474 3595 c-14 -36 3 -45 81 -45 l75 0 0 -225 0 -225 35 0 35 0 0
225 0 225 75 0 75 0 0 30 0 30 -185 0 c-156 0 -187 -2 -191 -15z"/>
<path d="M14872 3589 c-51 -25 -62 -45 -37 -63 16 -11 23 -10 53 10 79 54 165
18 165 -68 0 -64 -34 -120 -139 -228 -60 -61 -94 -105 -94 -118 0 -22 3 -22
155 -22 l155 0 0 25 0 25 -116 0 -117 0 87 90 c92 95 136 169 136 228 0 48
-28 101 -64 123 -43 26 -128 25 -184 -2z"/>
<path d="M15353 3591 c-55 -35 -76 -90 -81 -213 -7 -170 32 -257 124 -278 82
-19 160 33 185 122 18 64 15 215 -5 275 -25 74 -63 106 -133 110 -45 3 -65 0
-90 -16z m129 -43 c15 -12 9 -29 -59 -168 -84 -174 -91 -176 -92 -34 -1 87 17
164 45 195 20 22 81 26 106 7z m46 -213 c-4 -114 -26 -173 -71 -189 -30 -11
-87 9 -87 30 0 8 33 79 72 159 84 168 92 168 86 0z"/>
<path d="M15770 3599 c-14 -6 -35 -20 -47 -31 -21 -20 -22 -23 -7 -39 16 -17
18 -17 52 6 73 50 154 25 168 -50 11 -63 -18 -117 -127 -230 -74 -77 -99 -109
-99 -129 l0 -26 150 0 150 0 0 25 0 25 -116 0 -117 0 89 93 c100 103 134 161
134 229 0 51 -30 105 -70 125 -30 15 -124 16 -160 2z"/>
<path d="M16257 3591 c-66 -43 -99 -128 -99 -257 -1 -161 50 -235 162 -237 61
-1 107 27 137 82 55 104 8 228 -93 247 -45 8 -76 0 -113 -32 l-31 -26 0 29 c0
114 76 188 162 158 32 -10 37 -10 47 8 7 10 11 20 9 22 -37 30 -139 34 -181 6z
m130 -235 c25 -22 28 -31 28 -85 -1 -45 -6 -67 -21 -88 -63 -84 -162 -37 -172
80 -4 51 -3 54 32 85 46 40 92 43 133 8z"/>
<path d="M14060 3200 c-27 -27 -25 -62 3 -88 29 -27 57 -28 85 -2 42 39 14
110 -43 110 -14 0 -34 -9 -45 -20z"/>
</g>
</svg>
